<svg width="58" height="58" viewBox="0 0 58 58" fill="none" xmlns="http://www.w3.org/2000/svg">
<circle cx="29" cy="29" r="29" fill="black"/>
<g opacity="0.35">
<path d="M29.0674 47.2491L12.0012 37.3647L12.0012 17.4829L20.5333 22.5373L20.5333 32.4222L29.0674 37.3647L29.0674 47.2491Z" fill="#00D662"/>
<path d="M29.0674 47.2491L12.0012 37.3647L12.0012 17.4829L20.5333 22.5373L20.5333 32.4222L29.0674 37.3647L29.0674 47.2491Z" fill="#00D662"/>
<path d="M29.0665 27.4797L20.5325 22.5372L20.5325 12.6523L29.0665 17.5948L37.6006 12.6523V22.5372L29.0665 27.4797Z" fill="#00D662"/>
<path d="M29.0665 27.4797L20.5325 22.5372L20.5325 12.6523L29.0665 17.5948L37.6006 12.6523V22.5372L29.0665 27.4797Z" fill="#00D662"/>
<path d="M20.5322 22.5372L12.0001 17.4829L20.5322 12.6523L20.5322 22.5372Z" fill="#00D662"/>
<path d="M20.5322 22.5372L12.0001 17.4829L20.5322 12.6523L20.5322 22.5372Z" fill="#00D662"/>
<path d="M29.0659 47.2491L46.1321 37.3647V17.4829L37.6 22.5373V32.4222L29.0659 37.3647L29.0659 47.2491Z" fill="#00D662"/>
<path d="M29.0659 47.2491L46.1321 37.3647V17.4829L37.6 22.5373V32.4222L29.0659 37.3647L29.0659 47.2491Z" fill="#00D662"/>
<path d="M29.0663 27.4797L37.6003 22.5372V12.6523L29.0663 17.5948L20.5322 12.6523L20.5322 22.5372L29.0663 27.4797Z" fill="#00D662"/>
<path d="M29.0663 27.4797L37.6003 22.5372V12.6523L29.0663 17.5948L20.5322 12.6523L20.5322 22.5372L29.0663 27.4797Z" fill="#00D662"/>
<path d="M37.6006 22.5372L46.1328 17.4829L37.6006 12.6523V22.5372Z" fill="#00D662"/>
<path d="M37.6006 22.5372L46.1328 17.4829L37.6006 12.6523V22.5372Z" fill="#00D662"/>
<path d="M29.0641 47.3277L37.5959 42.3049V32.2593L29.0641 37.2821L20.5322 32.2593L20.5322 42.3049L29.0641 47.3277Z" fill="#00D662"/>
<path d="M29.0641 47.3277L37.5959 42.3049V32.2593L29.0641 37.2821L20.5322 32.2593L20.5322 42.3049L29.0641 47.3277Z" fill="#00D662"/>
</g>
<path d="M29.0674 44.597L12.0012 34.7126L12.0012 14.8308L20.5333 19.8852L20.5333 29.7701L29.0674 34.7126L29.0674 44.597Z" fill="#00D662"/>
<path d="M29.0674 44.597L12.0012 34.7126L12.0012 14.8308L20.5333 19.8852L20.5333 29.7701L29.0674 34.7126L29.0674 44.597Z" fill="#00D662"/>
<path d="M29.067 24.8274L20.533 19.8849L20.533 10L29.067 14.9425L37.6011 10V19.8849L29.067 24.8274Z" fill="#00D662"/>
<path d="M29.067 24.8274L20.533 19.8849L20.533 10L29.067 14.9425L37.6011 10V19.8849L29.067 24.8274Z" fill="#00D662"/>
<path d="M20.5327 19.8849L12.0005 14.8305L20.5327 10L20.5327 19.8849Z" fill="#00D662"/>
<path d="M20.5327 19.8849L12.0005 14.8305L20.5327 10L20.5327 19.8849Z" fill="#00D662"/>
<path d="M29.0664 44.597L46.1326 34.7126V14.8308L37.6005 19.8852V29.7701L29.0664 34.7126L29.0664 44.597Z" fill="#00D662"/>
<path d="M29.0664 44.597L46.1326 34.7126V14.8308L37.6005 19.8852V29.7701L29.0664 34.7126L29.0664 44.597Z" fill="#00D662"/>
<path d="M29.0668 24.8274L37.6008 19.8849V10L29.0668 14.9425L20.5327 10L20.5327 19.8849L29.0668 24.8274Z" fill="#00D662"/>
<path d="M29.0668 24.8274L37.6008 19.8849V10L29.0668 14.9425L20.5327 10L20.5327 19.8849L29.0668 24.8274Z" fill="#00D662"/>
<path d="M37.6011 19.8849L46.1332 14.8305L37.6011 10V19.8849Z" fill="#00D662"/>
<path d="M37.6011 19.8849L46.1332 14.8305L37.6011 10V19.8849Z" fill="#00D662"/>
<path d="M29.0646 44.6756L37.5964 39.6528V29.6072L29.0646 34.63L20.5327 29.6072L20.5327 39.6528L29.0646 44.6756Z" fill="#00D662"/>
<path d="M29.0646 44.6756L37.5964 39.6528V29.6072L29.0646 34.63L20.5327 29.6072L20.5327 39.6528L29.0646 44.6756Z" fill="#00D662"/>
</svg>
