<svg width="58" height="58" viewBox="0 0 58 58" fill="none" xmlns="http://www.w3.org/2000/svg">
<path d="M29 0C45.0155 0 58 12.9845 58 29C58 45.0155 45.015 58 29 58C12.985 58 0 45.019 0 29C0 12.981 12.9827 0 29 0Z" fill="#53AE94"/>
<path d="M32.5787 25.136V20.8219H42.4439V14.2488H15.5806V20.8219H25.447V25.1325C17.4285 25.5008 11.3994 27.0888 11.3994 28.9912C11.3994 30.8936 17.4314 32.4817 25.447 32.8523V46.6708H32.581V32.8511C40.585 32.4817 46.6019 30.8948 46.6019 28.9941C46.6019 27.0935 40.585 25.5066 32.581 25.1371L32.5787 25.136ZM32.581 31.6807V31.6772C32.3798 31.69 31.3456 31.752 29.043 31.752C27.2021 31.752 25.907 31.6998 25.4505 31.676V31.6818C18.3664 31.3681 13.0785 30.1344 13.0785 28.6583C13.0785 27.1822 18.367 25.9503 25.4505 25.6359V30.4528C25.9145 30.4847 27.2415 30.563 29.0732 30.563C31.2731 30.563 32.3792 30.4714 32.5822 30.4528V25.6359C39.6524 25.9509 44.9281 27.1857 44.9281 28.6566C44.9281 30.1274 39.6501 31.3628 32.5822 31.6778" fill="white"/>
</svg>
