<svg width="21" height="24" viewBox="0 0 21 24" fill="none" xmlns="http://www.w3.org/2000/svg">
<path d="M12.0472 0C12.3652 0 12.6098 0.252 12.6098 0.552V4.416C12.6098 6.612 14.4566 8.412 16.6948 8.424C17.6243 8.424 18.3582 8.436 18.9208 8.436L19.1292 8.43511C19.5051 8.43233 20.0114 8.424 20.4496 8.424C20.7554 8.424 21 8.664 21 8.964V18.612C21 21.588 18.5416 24 15.5084 24H5.77286C2.59289 24 0 21.468 0 18.348V5.412C0 2.436 2.47059 0 5.51602 0H12.0472ZM13.3559 15.48H6.70239C6.20093 15.48 5.78509 15.876 5.78509 16.368C5.78509 16.86 6.20093 17.268 6.70239 17.268H13.3559C13.8573 17.268 14.2732 16.86 14.2732 16.368C14.2732 15.876 13.8573 15.48 13.3559 15.48ZM10.8363 9.48H6.70239C6.20093 9.48 5.78509 9.888 5.78509 10.38C5.78509 10.872 6.20093 11.268 6.70239 11.268H10.8363C11.3378 11.268 11.7536 10.872 11.7536 10.38C11.7536 9.888 11.3378 9.48 10.8363 9.48ZM14.392 1.0872C14.392 0.57 15.0317 0.3132 15.3974 0.6864C16.7195 2.0352 19.0299 4.3932 20.3214 5.7108C20.6786 6.0744 20.4168 6.678 19.9019 6.6792C18.8966 6.6828 17.7114 6.6792 16.859 6.6708C15.5062 6.6708 14.392 5.5776 14.392 4.2504V1.0872Z" fill="#26FFFF"/>
</svg>
