<svg width="21" height="21" viewBox="0 0 21 21" fill="none" xmlns="http://www.w3.org/2000/svg">
<path opacity="0.4" d="M14.8357 0H5.39152C1.94993 0 0 1.94993 0 5.39152V14.8267C0 18.2683 1.94993 20.2182 5.39152 20.2182H14.8357C18.2772 20.2182 20.2182 18.2683 20.2182 14.8267V5.39152C20.2182 1.94993 18.2772 0 14.8357 0Z" fill="#4C68EF"/>
<path d="M4.87932 8.08728C4.42105 8.08728 4.04364 8.46469 4.04364 8.93195V15.878C4.04364 16.3363 4.42105 16.7137 4.87932 16.7137C5.34659 16.7137 5.724 16.3363 5.724 15.878V8.93195C5.724 8.46469 5.34659 8.08728 4.87932 8.08728Z" fill="#7B91FF"/>
<path d="M9.93389 5.05457C9.47561 5.05457 9.09821 5.43197 9.09821 5.89924V16.1611C9.09821 16.6194 9.47561 16.9968 9.93389 16.9968C10.4012 16.9968 10.7786 16.6194 10.7786 16.1611V5.89924C10.7786 5.43197 10.4012 5.05457 9.93389 5.05457Z" fill="#7B91FF"/>
<path d="M15.1582 3.03271C14.6068 3.03271 14.1527 3.47998 14.1527 4.03374V16.1951C14.1527 16.7382 14.6068 17.1854 15.1582 17.1854C15.7204 17.1854 16.1745 16.7382 16.1745 16.1951V4.03374C16.1745 3.47998 15.7204 3.03271 15.1582 3.03271Z" fill="#7B91FF"/>
</svg>
