<svg width="26" height="15" viewBox="0 0 26 15" fill="none" xmlns="http://www.w3.org/2000/svg">
<path d="M23.8733 13.9332L6.98626 13.6942C6.76426 13.691 6.5868 13.5086 6.58994 13.2864L6.76067 1.22424C6.76381 1.00223 6.94636 0.824691 7.16837 0.827833L24.0554 1.06684C24.2775 1.06999 24.455 1.25263 24.4518 1.47463L24.2811 13.5368C24.278 13.759 24.0954 13.9363 23.8733 13.9332Z" fill="#FBE65F"/>
<path d="M24.4696 0.268196L5.97436 0.00642347L5.96867 0.408519C5.96552 0.630778 5.78306 0.807982 5.56088 0.804837L5.5495 1.60903C5.77176 1.61217 5.94905 1.79455 5.94591 2.01673L5.93453 2.82092C5.93138 3.04318 5.74892 3.22038 5.52674 3.21724L5.51536 4.02143C5.73762 4.02457 5.91491 4.20704 5.91176 4.42921L5.90038 5.23332C5.89723 5.45566 5.71477 5.63287 5.4926 5.62972L5.48121 6.43391C5.70347 6.43706 5.88076 6.61944 5.87762 6.84161L5.86624 7.6458C5.86309 7.86806 5.68063 8.04535 5.45845 8.04221L5.44707 8.84631C5.66933 8.84946 5.84662 9.03184 5.84347 9.2541L5.83209 10.0582C5.82895 10.2805 5.64648 10.4578 5.42431 10.4546L5.41293 11.2587C5.63519 11.2619 5.81247 11.4443 5.80933 11.6665L5.79795 12.4707C5.7948 12.6929 5.61234 12.8702 5.39016 12.867L5.37878 13.6712C5.60104 13.6743 5.77833 13.8567 5.77519 14.0789L5.7695 14.481L24.2648 14.7428C24.7089 14.7491 25.074 14.3941 25.0802 13.95L25.2623 1.08368C25.2686 0.639589 24.9138 0.274483 24.4696 0.268196Z" fill="#FEBF32"/>
<path d="M23.8733 13.9332L6.98626 13.6942C6.76426 13.691 6.5868 13.5086 6.58994 13.2864L6.76067 1.22424C6.76381 1.00223 6.94636 0.824691 7.16837 0.827833L24.0554 1.06684C24.2775 1.06999 24.455 1.25263 24.4518 1.47463L24.2811 13.5368C24.278 13.759 24.0954 13.9363 23.8733 13.9332Z" fill="#FBE65F"/>
<path d="M5.409 12.8663C5.18674 12.8694 5.00436 12.6921 5.00121 12.4699L4.98983 11.6658C4.98668 11.4435 5.16406 11.2611 5.38623 11.258L5.37485 10.4539C5.15259 10.457 4.97021 10.2796 4.96707 10.0575L4.95568 9.25328C4.95254 9.03102 5.12992 8.84872 5.35209 8.84557L5.34071 8.04138C5.11845 8.04453 4.93607 7.86724 4.93292 7.64507L4.92154 6.84088C4.9184 6.61862 5.09577 6.43623 5.31794 6.43309L5.30656 5.62899C5.0843 5.63213 4.90192 5.45484 4.89878 5.23258L4.8874 4.42848C4.88425 4.20622 5.06163 4.02383 5.2838 4.02069L5.27242 3.2165C5.05016 3.21965 4.86778 3.04236 4.86463 2.8201L4.85325 2.01599C4.85011 1.79373 5.02748 1.61144 5.24966 1.60829L5.23827 0.804101C5.01602 0.807247 4.83363 0.629957 4.83049 0.407697L4.8248 0.00568685L0.80419 0.0625925C0.360096 0.068878 0.00509421 0.433901 0.0113809 0.87808L0.0614778 4.41762C0.0643462 4.62029 0.166659 4.81149 0.340507 4.91571C1.1489 5.4 1.69641 6.27695 1.71073 7.2885C1.72504 8.29995 1.20257 9.19213 0.408209 9.69911C0.23738 9.8082 0.140521 10.0023 0.143388 10.2049L0.193484 13.7444C0.199769 14.1884 0.564962 14.5434 1.00906 14.5372L5.02967 14.4803L5.02397 14.0782C5.02083 13.856 5.1982 13.6735 5.42038 13.6704L5.409 12.8663Z" fill="#FEBF32"/>
<path d="M15.149 10.1554L13.0464 11.4342C12.5832 11.7161 12.0126 11.2892 12.1525 10.7652L12.7865 8.38733L10.9205 6.7828C10.5093 6.42917 10.739 5.75469 11.2806 5.72571L13.7381 5.594L14.6873 3.32347C14.8966 2.82312 15.609 2.8332 15.804 3.33927L16.6887 5.63576L19.1415 5.83697C19.6819 5.88134 19.8926 6.56206 19.4715 6.90383L17.5608 8.4549L18.1273 10.8497C18.2522 11.3775 17.67 11.7881 17.2147 11.4932L15.149 10.1554Z" fill="#FEFEFE"/>
<path d="M17.8783 9.80667C15.2752 9.61058 13.089 7.96651 12.1118 5.68124L11.2785 5.72585C10.7368 5.7549 10.5071 6.4293 10.9183 6.78294L12.7843 8.38737L12.1502 10.7653C12.0105 11.2893 12.5809 11.7162 13.0443 11.4344L15.1469 10.1555L17.2124 11.4934C17.6675 11.7882 18.2499 11.3776 18.1249 10.8499L17.8783 9.80667Z" fill="#FDFAD2"/>
</svg>
