<svg width="23" height="25" viewBox="0 0 23 25" fill="none" xmlns="http://www.w3.org/2000/svg">
<path d="M21.0599 13.1881H1.91431V22.9438C1.91431 24.0083 2.7632 24.8717 3.80932 24.8717H19.1649C20.2108 24.8717 21.0599 24.0083 21.0599 22.9438V13.1881Z" fill="url(#paint0_linear)"/>
<path d="M21.0795 5.7157H20.3197C20.3655 5.7157 2.60935 5.7157 2.65497 5.7157H1.89501C0.848892 5.7157 0 6.57321 0 7.62048V11.4885C0 12.5358 0.848892 13.3195 1.89501 13.3195H21.0795C22.1256 13.3195 23 12.5358 23 11.4885V7.62048C23 6.57321 22.1256 5.7157 21.0795 5.7157ZM9.00833 11.4028H1.91667V7.76116H9.00833V11.4028ZM21.0833 11.4028H13.9917V7.76116H21.0833V11.4028Z" fill="url(#paint1_linear)"/>
<path d="M10.3889 3.20352C9.59522 2.00867 8.49562 0.681764 6.69702 0.186306C3.59145 -0.666419 2.25726 1.61901 1.99295 2.77898C1.84479 3.42892 2.00368 4.83403 2.63101 5.58096C3.25833 6.32788 3.92917 6.83101 5.68042 7.21012C8.77028 7.87904 11.4042 7.35272 11.4042 7.35272C11.4042 7.35272 11.2604 4.91434 10.3889 3.20352ZM8.93416 5.53745C7.35617 5.70381 5.43797 5.30668 4.85741 4.96072C4.07407 4.49516 3.94412 3.76626 4.00871 3.34555C4.10684 2.79585 4.91587 1.68207 6.49424 2.36709C8.00208 3.02163 8.95467 5.42321 8.93416 5.53745Z" fill="url(#paint2_linear)"/>
<path d="M12.6111 3.20352C13.4048 2.00867 14.5044 0.681764 16.303 0.186306C19.4086 -0.666419 20.7427 1.61901 21.0071 2.77898C21.1552 3.42892 20.9963 4.83403 20.369 5.58096C19.7417 6.32788 19.0708 6.83101 17.3196 7.21012C14.2297 7.87904 11.5958 7.35272 11.5958 7.35272C11.5958 7.35272 11.7396 4.91434 12.6111 3.20352ZM14.0658 5.53745C15.6438 5.70381 17.562 5.30668 18.1426 4.96072C18.9259 4.49516 19.0559 3.76626 18.9913 3.34555C18.8932 2.79585 18.0841 1.68207 16.5058 2.36709C14.9979 3.02163 14.0453 5.42321 14.0658 5.53745Z" fill="url(#paint3_linear)"/>
<path d="M10.1705 5.89052C9.69726 5.13612 9.75782 4.47908 9.85232 3.97174C9.96674 3.35707 10.521 2.45834 11.5077 2.44953C12.4944 2.44071 13.0303 3.36052 13.1457 3.96369C13.2611 4.56687 13.1607 5.29482 12.8394 5.89799C12.5182 6.50117 11.506 7.24503 11.506 7.24503C11.506 7.24503 10.5536 6.50155 10.1705 5.89052Z" fill="url(#paint4_linear)"/>
<defs>
<linearGradient id="paint0_linear" x1="-0.492068" y1="25.1633" x2="24.0413" y2="0.342418" gradientUnits="userSpaceOnUse">
<stop stop-color="#FFB51C"/>
<stop offset="0.5" stop-color="#FF654F"/>
<stop offset="1" stop-color="#FF1681"/>
</linearGradient>
<linearGradient id="paint1_linear" x1="0.0958337" y1="24.8985" x2="23.1917" y2="0.173464" gradientUnits="userSpaceOnUse">
<stop stop-color="#FFB51C"/>
<stop offset="0.5" stop-color="#FF654F"/>
<stop offset="1" stop-color="#FF1681"/>
</linearGradient>
<linearGradient id="paint2_linear" x1="0.0958327" y1="24.563" x2="23.1917" y2="-0.161954" gradientUnits="userSpaceOnUse">
<stop stop-color="#FFB51C"/>
<stop offset="0.5" stop-color="#FF654F"/>
<stop offset="1" stop-color="#FF1681"/>
</linearGradient>
<linearGradient id="paint3_linear" x1="0.383332" y1="24.563" x2="22.7125" y2="-0.161954" gradientUnits="userSpaceOnUse">
<stop stop-color="#FFB51C"/>
<stop offset="0.5" stop-color="#FF654F"/>
<stop offset="1" stop-color="#FF1681"/>
</linearGradient>
<linearGradient id="paint4_linear" x1="0.383406" y1="24.5631" x2="22.7126" y2="-0.161933" gradientUnits="userSpaceOnUse">
<stop stop-color="#FFB51C"/>
<stop offset="0.5" stop-color="#FF654F"/>
<stop offset="1" stop-color="#FF1681"/>
</linearGradient>
</defs>
</svg>
