<svg width="27" height="30" viewBox="0 0 27 30" fill="none" xmlns="http://www.w3.org/2000/svg">
<g opacity="0.35">
<path d="M13.5 29.3723L0.000218278 21.5781L0.000218278 5.90088L6.74936 9.88639L6.74936 17.6809L13.5 21.5781V29.3723Z" fill="#00D662"/>
<path d="M13.5 29.3723L0.000218278 21.5781L0.000218278 5.90088L6.74936 9.88639L6.74936 17.6809L13.5 21.5781V29.3723Z" fill="#00D662"/>
<path d="M13.4994 13.7835L6.74873 9.88629L6.74873 2.0918L13.4994 5.98904L20.25 2.0918V9.88629L13.4994 13.7835Z" fill="#00D662"/>
<path d="M13.4994 13.7835L6.74873 9.88629L6.74873 2.0918L13.4994 5.98904L20.25 2.0918V9.88629L13.4994 13.7835Z" fill="#00D662"/>
<path d="M6.75 9.88629L0.000855357 5.90078L6.75 2.0918L6.75 9.88629Z" fill="#00D662"/>
<path d="M6.75 9.88629L0.000855357 5.90078L6.75 2.0918L6.75 9.88629Z" fill="#00D662"/>
<path d="M13.5 29.3723L26.9998 21.5781L26.9998 5.90088L20.2506 9.88639V17.6809L13.5 21.5781V29.3723Z" fill="#00D662"/>
<path d="M13.5 29.3723L26.9998 21.5781L26.9998 5.90088L20.2506 9.88639V17.6809L13.5 21.5781V29.3723Z" fill="#00D662"/>
<path d="M13.4987 13.7835L20.2493 9.88629V2.0918L13.4987 5.98904L6.74805 2.0918L6.74805 9.88629L13.4987 13.7835Z" fill="#00D662"/>
<path d="M13.4987 13.7835L20.2493 9.88629V2.0918L13.4987 5.98904L6.74805 2.0918L6.74805 9.88629L13.4987 13.7835Z" fill="#00D662"/>
<path d="M20.25 9.88629L26.9991 5.90078L20.25 2.0918V9.88629Z" fill="#00D662"/>
<path d="M20.25 9.88629L26.9991 5.90078L20.25 2.0918V9.88629Z" fill="#00D662"/>
<path d="M13.4969 29.4341L20.2458 25.4735V17.5522L13.4969 21.5129L6.74805 17.5522L6.74805 25.4735L13.4969 29.4341Z" fill="#00D662"/>
<path d="M13.4969 29.4341L20.2458 25.4735V17.5522L13.4969 21.5129L6.74805 17.5522L6.74805 25.4735L13.4969 29.4341Z" fill="#00D662"/>
</g>
<path d="M13.5 27.2805L0.000218278 19.4863L0.000218278 3.80908L6.74936 7.79459L6.74936 15.5891L13.5 19.4863V27.2805Z" fill="#00D662"/>
<path d="M13.5 27.2805L0.000218278 19.4863L0.000218278 3.80908L6.74936 7.79459L6.74936 15.5891L13.5 19.4863V27.2805Z" fill="#00D662"/>
<path d="M13.4994 11.6917L6.74873 7.79449L6.74873 0L13.4994 3.89725L20.25 0V7.79449L13.4994 11.6917Z" fill="#00D662"/>
<path d="M13.4994 11.6917L6.74873 7.79449L6.74873 0L13.4994 3.89725L20.25 0V7.79449L13.4994 11.6917Z" fill="#00D662"/>
<path d="M6.75 7.79449L0.000855357 3.80899L6.75 0L6.75 7.79449Z" fill="#00D662"/>
<path d="M6.75 7.79449L0.000855357 3.80899L6.75 0L6.75 7.79449Z" fill="#00D662"/>
<path d="M13.5 27.2805L26.9998 19.4863L26.9998 3.80908L20.2506 7.79459V15.5891L13.5 19.4863V27.2805Z" fill="#00D662"/>
<path d="M13.5 27.2805L26.9998 19.4863L26.9998 3.80908L20.2506 7.79459V15.5891L13.5 19.4863V27.2805Z" fill="#00D662"/>
<path d="M13.4987 11.6917L20.2493 7.79449V0L13.4987 3.89725L6.74805 0L6.74805 7.79449L13.4987 11.6917Z" fill="#00D662"/>
<path d="M13.4987 11.6917L20.2493 7.79449V0L13.4987 3.89725L6.74805 0L6.74805 7.79449L13.4987 11.6917Z" fill="#00D662"/>
<path d="M20.25 7.79449L26.9991 3.80899L20.25 0V7.79449Z" fill="#00D662"/>
<path d="M20.25 7.79449L26.9991 3.80899L20.25 0V7.79449Z" fill="#00D662"/>
<path d="M13.4969 27.3423L20.2458 23.3817V15.4604L13.4969 19.4211L6.74805 15.4604L6.74805 23.3817L13.4969 27.3423Z" fill="#00D662"/>
<path d="M13.4969 27.3423L20.2458 23.3817V15.4604L13.4969 19.4211L6.74805 15.4604L6.74805 23.3817L13.4969 27.3423Z" fill="#00D662"/>
</svg>
