<svg width="33" height="36" viewBox="0 0 33 36" fill="none" xmlns="http://www.w3.org/2000/svg">
<g opacity="0.35">
<path d="M16.5 35.9001L6.01634e-07 26.3738L6.01634e-07 7.2124L8.24909 12.0837V21.6104L16.5 26.3738V35.9001Z" fill="#00D662"/>
<path d="M16.5 35.9001L6.01634e-07 26.3738L6.01634e-07 7.2124L8.24909 12.0837V21.6104L16.5 26.3738V35.9001Z" fill="#00D662"/>
<path d="M16.4991 16.8468L8.24818 12.0834V2.55664L16.4991 7.32002L24.75 2.55664V12.0834L16.4991 16.8468Z" fill="#00D662"/>
<path d="M16.4991 16.8468L8.24818 12.0834V2.55664L16.4991 7.32002L24.75 2.55664V12.0834L16.4991 16.8468Z" fill="#00D662"/>
<path d="M8.25 12.0834L0.000911535 7.21214L8.25 2.55664L8.25 12.0834Z" fill="#00D662"/>
<path d="M8.25 12.0834L0.000911535 7.21214L8.25 2.55664L8.25 12.0834Z" fill="#00D662"/>
<path d="M16.5 35.9001L33 26.3738V7.2124L24.7509 12.0837V21.6104L16.5 26.3738V35.9001Z" fill="#00D662"/>
<path d="M16.5 35.9001L33 26.3738V7.2124L24.7509 12.0837V21.6104L16.5 26.3738V35.9001Z" fill="#00D662"/>
<path d="M16.499 16.8468L24.7499 12.0834V2.55664L16.499 7.32002L8.24805 2.55664L8.24805 12.0834L16.499 16.8468Z" fill="#00D662"/>
<path d="M16.499 16.8468L24.7499 12.0834V2.55664L16.499 7.32002L8.24805 2.55664L8.24805 12.0834L16.499 16.8468Z" fill="#00D662"/>
<path d="M24.75 12.0834L32.9991 7.21214L24.75 2.55664V12.0834Z" fill="#00D662"/>
<path d="M24.75 12.0834L32.9991 7.21214L24.75 2.55664V12.0834Z" fill="#00D662"/>
<path d="M16.4968 35.9756L24.7456 31.1348L24.7456 21.4531L16.4968 26.2939L8.24805 21.4531L8.24805 31.1348L16.4968 35.9756Z" fill="#00D662"/>
<path d="M16.4968 35.9756L24.7456 31.1348L24.7456 21.4531L16.4968 26.2939L8.24805 21.4531L8.24805 31.1348L16.4968 35.9756Z" fill="#00D662"/>
</g>
<path d="M16.5 33.3435L6.01634e-07 23.8172L6.01634e-07 4.65576L8.24909 9.52702V19.0538L16.5 23.8172V33.3435Z" fill="#00D662"/>
<path d="M16.5 33.3435L6.01634e-07 23.8172L6.01634e-07 4.65576L8.24909 9.52702V19.0538L16.5 23.8172V33.3435Z" fill="#00D662"/>
<path d="M16.4991 14.2901L8.24818 9.52676V0L16.4991 4.76338L24.75 0V9.52676L16.4991 14.2901Z" fill="#00D662"/>
<path d="M16.4991 14.2901L8.24818 9.52676V0L16.4991 4.76338L24.75 0V9.52676L16.4991 14.2901Z" fill="#00D662"/>
<path d="M8.25 9.52676L0.000911535 4.6555L8.25 0L8.25 9.52676Z" fill="#00D662"/>
<path d="M8.25 9.52676L0.000911535 4.6555L8.25 0L8.25 9.52676Z" fill="#00D662"/>
<path d="M16.5 33.3435L33 23.8172V4.65576L24.7509 9.52702V19.0538L16.5 23.8172V33.3435Z" fill="#00D662"/>
<path d="M16.5 33.3435L33 23.8172V4.65576L24.7509 9.52702V19.0538L16.5 23.8172V33.3435Z" fill="#00D662"/>
<path d="M16.499 14.2901L24.7499 9.52676V0L16.499 4.76338L8.24805 0L8.24805 9.52676L16.499 14.2901Z" fill="#00D662"/>
<path d="M16.499 14.2901L24.7499 9.52676V0L16.499 4.76338L8.24805 0L8.24805 9.52676L16.499 14.2901Z" fill="#00D662"/>
<path d="M24.75 9.52676L32.9991 4.6555L24.75 0V9.52676Z" fill="#00D662"/>
<path d="M24.75 9.52676L32.9991 4.6555L24.75 0V9.52676Z" fill="#00D662"/>
<path d="M16.4968 33.419L24.7456 28.5781L24.7456 18.8965L16.4968 23.7373L8.24805 18.8965L8.24805 28.5781L16.4968 33.419Z" fill="#00D662"/>
<path d="M16.4968 33.419L24.7456 28.5781L24.7456 18.8965L16.4968 23.7373L8.24805 18.8965L8.24805 28.5781L16.4968 33.419Z" fill="#00D662"/>
</svg>
